<?xml version="1.0" encoding="UTF-8"?>
<!-- Uploaded to: SVG Repo, www.svgrepo.com, Generator: SVG Repo Mixer Tools -->
<svg width="800px" height="800px" version="1.1" viewBox="144 144 512 512" xmlns="http://www.w3.org/2000/svg">
 <defs>
  <clipPath id="a">
   <path fill="#fff" d="m193 148.09h414v503.81h-414z"/>
  </clipPath>
 </defs>
 <g clip-path="url(#a)">
  <path fill="#fff" d="m569.86 293.73c-3.6445-0.89844-6.9414-2.8672-9.4688-5.6484-2.5273-2.7812-4.1641-6.25-4.7109-9.9688l-10.043-67.523c-2.6055-17.504-11.457-33.473-24.922-44.957-13.465-11.484-30.633-17.707-48.328-17.52-17.699 0.19141-34.727 6.7812-47.941 18.551l-26.41 23.57c-36.41 32.508-78.93 57.441-125.08 73.348l-5.0664 1.75c-29.047 10.043-52.605 31.715-65.035 59.824-12.426 28.109-12.602 60.121-0.48437 88.363 12.117 28.242 35.434 50.176 64.367 60.539l5.2461 1.8711c5.5234 1.9805 9.8203 6.4102 11.633 11.992 1.8125 5.5859 0.93359 11.695-2.375 16.543-7.1211 10.379-9.9375 23.121-7.8555 35.535 2.0781 12.418 8.8984 23.539 19.016 31.031l27.344 20.34c9.2031 6.8125 20.152 10.867 31.574 11.688 11.418 0.82031 22.836-1.625 32.918-7.0508 5.0117-2.7109 10.977-3.0234 16.242-0.85547 5.2695 2.168 9.2852 6.5898 10.938 12.043 3.8477 12.949 11.789 24.309 22.633 32.367 10.844 8.0625 24.008 12.391 37.52 12.344h3.543c15.383-0.003906 30.234-5.6484 41.738-15.863 11.508-10.211 18.875-24.289 20.703-39.566 1.0273-8.6836 4.543-16.883 10.125-23.613l30.109-36.328 0.003906-0.003906c18.621-22.496 28.824-50.781 28.852-79.988v-115.79c0.007813-10.82-3.6094-21.336-10.277-29.859s-16-14.566-26.508-17.164zm-96.676-116.11c10.477 0.046875 20.594 3.8281 28.531 10.668s13.172 16.289 14.766 26.645l4.418 29.727c-31.047 2.9531-63.656-19.414-77.902-54.965l1.1133-0.98438h-0.003907c8.0039-7.1367 18.352-11.082 29.078-11.09zm-208.72 121.46c1.6562 3.1758 3.0898 6.4648 4.293 9.8398 5.9023 16.668 6.0039 34.176 0.25391 49.289-5.4336 14.258-15.488 24.602-28.309 29.176-4.9102 1.7305-10.09 2.5625-15.293 2.457-4.4336-17.32-3.0078-35.625 4.0586-52.055 7.0664-16.426 19.371-30.051 34.996-38.746zm243.78 293.9c-0.96875 8.1055-4.875 15.574-10.98 20.992-6.1055 5.4219-13.988 8.4141-22.148 8.418h-3.543c-7.1719 0.03125-14.164-2.2617-19.922-6.5391-5.7578-4.2734-9.9766-10.301-12.02-17.176-1.7344-5.7031-4.5039-11.039-8.168-15.742 3.5195-6.4336 7.9414-12.328 13.137-17.508 12.516-12.508 28.281-20.121 44.387-21.43 13.777-1.1133 26.301 2.5898 35.691 10.449-9.0352 11.016-14.738 24.387-16.434 38.535zm68.879-136.43c-0.011719 22.34-7.8125 43.977-22.059 61.188l-11.543 13.922c-15.332-12.793-35.297-18.875-56.914-17.121-23.094 1.8789-45.422 12.516-62.879 29.984v-0.003907c-6.4883 6.4648-12.109 13.742-16.727 21.648-12.297-3.6758-25.551-2.2891-36.824 3.8477-5.1289 2.7656-10.938 4.0117-16.75 3.5938-5.8086-0.41406-11.383-2.4766-16.066-5.9453l-27.344-20.34c-3.9883-2.9375-6.6836-7.3086-7.5195-12.195-0.83203-4.8828 0.25781-9.8984 3.043-13.996 8.4648-12.395 10.719-28.008 6.0977-42.289-4.6211-14.277-15.594-25.613-29.715-30.695l-5.2734-1.8906c-15.051-5.4023-28.164-15.137-37.688-27.984 3.9453-0.6875 7.8242-1.7031 11.602-3.0391 21.125-7.4883 37.473-24 46.031-46.492 8.2461-21.648 8.2344-46.387 0-69.656v-0.003907c-1.332-3.7461-2.8633-7.4141-4.5938-10.992 46.219-17.246 88.816-42.953 125.62-75.809l2.2539-1.9688c10.488 21.137 26.34 38.621 45.707 50.117 15.742 9.3672 32.707 14.141 49.477 14.141h-0.003906c3.3984 0 6.793-0.19922 10.164-0.58984l1.2578 8.4922h0.003906c1.3945 9.5039 5.5859 18.375 12.043 25.488 6.4609 7.1094 14.891 12.133 24.219 14.43 4.1055 1.0156 7.75 3.3789 10.359 6.707 2.6055 3.3281 4.0234 7.4375 4.0234 11.664z"/>
 </g>
 <path fill="#fff" d="m506.27 332.02c-15.184-3.4648-30.867 0.097656-44.16 10.035-12.566 9.3984-21.531 23.508-25.23 39.734-7.8711 34.383 10.52 68.004 40.934 74.941 3.6797 0.84375 7.4453 1.2695 11.219 1.2695 26.508 0 51.297-20.891 58.176-51.039 3.6992-16.227 1.7422-32.828-5.5-46.738-7.707-14.723-20.293-24.742-35.438-28.203zm12.152 68.379c-4.2227 18.508-19.492 30.879-34.047 27.551-14.555-3.3242-22.938-21.078-18.695-39.598 2.1445-9.3984 7.1641-17.445 14.129-22.633h0.003906c4.3438-3.4102 9.6797-5.3164 15.203-5.4297 1.5859 0 3.1641 0.17578 4.7109 0.53125 6.5938 1.5039 12.211 6.1406 15.812 13.059 3.957 7.6836 4.9883 17.109 2.8438 26.516z"/>
 <path fill="#fff" d="m378.35 425.98c-24.422 0-44.281 22.199-44.281 49.496s19.875 49.488 44.281 49.488c24.402 0 44.281-22.199 44.281-49.484-0.003906-27.289-19.848-49.5-44.281-49.5zm0 69.461c-8.0117 0-14.762-9.1406-14.762-19.965s6.75-19.977 14.762-19.977c8.0117 0 14.762 9.1523 14.762 19.977-0.003906 10.824-6.7422 19.965-14.762 19.965z"/>
 <path fill="#fff" d="m351.7 378.2c5.4414 2.6055 11.402 3.9531 17.434 3.9375 17.504 0 35.078-11.02 43.906-29.383 11.809-24.602 3.5117-53.215-18.5-63.781-10.914-5.2461-23.891-5.2656-35.602-0.050781h0.003906c-11.324 5.168-20.445 14.195-25.734 25.465-11.816 24.602-3.5195 53.242 18.492 63.812zm8.1172-51.02c2.2812-4.9453 6.2109-8.9414 11.117-11.297 1.9102-0.86719 3.9766-1.332 6.0742-1.3672 1.6445-0.011719 3.2734 0.34766 4.7617 1.0508 7.2109 3.4648 9.3477 14.633 4.6562 24.395-4.6836 9.7617-14.762 15.074-21.941 11.609-7.1875-3.4609-9.3516-14.609-4.668-24.391z"/>
</svg>