<svg viewBox="431.2780141843972 533.38112 309.7360283687944 447.09888" xmlns:xlink="http://www.w3.org/1999/xlink" xmlns="http://www.w3.org/2000/svg" data-name="Layer 1" id="Layer_1" style="max-height: 500px" width="309.7360283687944" height="447.09888"><defs><style>.cls-1{fill:url(#linear-gradient);}.cls-2{fill:#fdb619;}.cls-3{fill:#fef3b4;}.cls-4{fill:url(#linear-gradient-2);}.cls-5{fill:url(#linear-gradient-3);}.cls-6{fill:url(#linear-gradient-4);}.cls-7{fill:url(#linear-gradient-5);}.cls-8{fill:url(#linear-gradient-6);}</style><linearGradient gradientUnits="userSpaceOnUse" y2="815.53" x2="336.51" y1="175.6" x1="332.08" id="linear-gradient"><stop stop-color="#ec4032" offset="0"/><stop stop-color="#f2682b" offset="0.43"/><stop stop-color="#f68326" offset="0.79"/><stop stop-color="#f78d24" offset="1"/></linearGradient><linearGradient xlink:href="#linear-gradient" y2="734.41" x2="730.26" y1="254.46" x1="735.24" id="linear-gradient-2"/><linearGradient xlink:href="#linear-gradient" y2="40.19" x2="1101.14" y1="728.84" x1="1163.14" id="linear-gradient-3"/><linearGradient xlink:href="#linear-gradient" y2="1266.9" x2="1346.6" y1="776.43" x1="1029.95" id="linear-gradient-4"/><linearGradient xlink:href="#linear-gradient" y2="954.44" x2="926.21" y1="954.44" x1="638.2" id="linear-gradient-5"/><linearGradient xlink:href="#linear-gradient" y2="735.87" x2="397.84" y1="1229.66" x1="384.55" id="linear-gradient-6"/></defs><title>1</title><path transform="translate(-197.18 -192.14)" d="M197.18,325.76c11.73-4.06,26.5,18.75,30.67,27.08,10.13,20.21,3.42,45.28-4,65.39-12.33,33.5-27.06,67.92-21.48,104.31,4.86,31.76,22.23,61.85,48.54,80.59,56,39.92,132.24,18.63,176.21-29.16,32.11-34.9,53.86-93.55,37.09-140.28-15.44-43-46.28-58.57-46.5-58.68,8.36,4.2,16.52,20,19.21,28.22,4.48,13.67-3.9,48.68-25.11,37.34-5.06-2.71-8.13-8.22-9.27-13.84-2.69-13.31-1.82-28.69-2.14-42.32-1-42.45-8.66-74.68-42.22-102.71-31.18-26-70.58-38.44-111-38.44,3.45,0,8.48,3.16,11.5,4.53,12.15,5.53,28.42,13.85,35.63,25.44,12.31,19.78,13.29,44.22,10,66.68-1.47,10.18-7.43,56.4-25.63,48.84-3.25-1.35-5.46-4.51-6.61-7.84s-1.42-6.88-1.89-10.37a56.94,56.94,0,0,0-6.4-19.07,55.22,55.22,0,0,0-66.69-25.71Z" class="cls-1"/><path transform="translate(-197.18 -192.14)" d="M238.92,512.85S212.84,611.67,313.63,624c28.45,3.47,58.95-.93,80-21.89,40.78-40.55,32.8-110.83-13.58-142.94,4,2.78,6.39,11.78,7.38,16.09,2.82,12.24-.41,28.15-10.19,36.67,2.23-9.63,3.4-18.66-.15-28.25a126.35,126.35,0,0,0-22.9-39.35,112.22,112.22,0,0,0-18-16.11c-14.89-11-32.45-17.17-28-39.78,2.66-13.42,15.52-25.44,29-27.6a62.3,62.3,0,0,0-37.64,20c-18.36,20.57-23.73,50.83-20.41,77.53,1.7,13.62,6.29,25.32,12.13,37.58,6.88,14.45,12.31,32.15,3,46.78C282.66,561,247.23,562.12,238.92,512.85Z" class="cls-2"/><path transform="translate(-197.18 -192.14)" d="M346.27,623.53c23.74-4.34,35.54-29.87,27-51.75a41.67,41.67,0,0,0-14.21-18.38c-6.2-4.52-14.21-6.57-18.79-13.14-3.87-5.56-9.23-21-3.91-26.85,0,0-16.2,18.05-9.48,41.46s-18.75,39.46-33.15,6C293.72,560.89,274.26,636.67,346.27,623.53Z" class="cls-3"/><path transform="translate(-197.18 -192.14)" d="M729.07,623.51c-40.51,2.12-85.63-7.22-110.5-41.1-39-53.14,8.3-138.67-24.08-183.51,0,0,36.53,5.82,54,48.16,0,0-30.72-39,4.15-107.11,0,0-6.64,44,23.25,44.84,21.27.59,21.84-26.39,20.28-41.44-3.21-30.93-18.88-53.91-7.21-85.18,13.09-35.1,43.42-55.91,78.27-66-9.69,2.81-16.67,36.61-17.85,44.18-4.5,28.73,5.24,57.29,24.9,78.42,13,13.94,27.91,28.17,35.51,46,8.47,19.9,2.31,34.29-1.68,54,9.34-30.41,33.84-56.16,65.41-63.18,0,0-38.2,30.73-13.29,95.49,13.85,36,7,79.16-12.12,111.92-22.22,38.08-63.75,58.77-106.53,63.52C737.46,623,733.29,623.29,729.07,623.51Z" class="cls-4"/><path transform="translate(-197.18 -192.14)" d="M723,624.75c-11.74.54-23.45.73-35.1-2.57-16.06-4.56-30.88-14.58-39.46-28.9-14.6-24.36-5.52-54.61,9.22-76.36,3.2-4.72,9.69-11.45,9.06-17.68-1.26-12.64-2.52-24.65-9.48-29.08,0,0,16.44,6.32,27.18,29.71-3-6.48,3.22-22.84,5.44-28.77C695,457.19,702.75,449,716,442.62c18.26-8.71,23.37-25.68,16.69-44.71a44.82,44.82,0,0,0-26.86-27c9.81,0,24.69,8.71,32.93,13.95,26.87,17.06,42.37,48.67,37.68,80.68-1.16,7.95-3.5,15.88-2.62,23.86s6.24,16.28,14.22,17.13c6.22.67,12.31-3.62,14.85-9.34,2.35-5.33,1.85-11.23.16-16.66a52.17,52.17,0,0,1,7.61,8.15,88,88,0,0,1,13.16,28.78c8.07,31.85.75,70.74-26.39,91.42-14.74,11.24-35,15.46-53.32,15.18C737.09,624,730,624.43,723,624.75Z" class="cls-2"/><path transform="translate(-197.18 -192.14)" d="M729.07,623.51s-53.21,4.58-41-51.89c0,0,8.3,28.62,28.23,16.52s-7.75-33.13-.55-60.81S737.31,498,737.31,498s-19.38,36,10,57S789.48,624.48,729.07,623.51Z" class="cls-3"/><path transform="translate(-197.18 -192.14)" d="M993.27,364.3s35.43,18.27,8.3,74.18,3.32,145,76.95,175.48,162.2-6.09,193.2-57.57,17.71-131.75-4.43-156.66c2.63,2.95,3.21,10.87,3.79,14.51,1.61,10,1.41,20.81-2.92,30.18-9.23,20-28.7,32.25-48.23,22.13-23.23-12-11.7-37.28-4.68-59.07,10.54-32.7,15.62-80.67-18.82-106.84,0,0,13.84,20.48-3.32,40.41,0,0-28.23,17.12-33.77,39,0,0,29.9-102.12-44.28-166.89,7.06,15.41.9,36.8-5.14,51.25-7.43,17.73-19.64,31.09-29.24,47.35a125.94,125.94,0,0,0-17,53.76c-.83,10.48,8.62,53.58-10.58,53.58C1028.7,419.11,1024.27,366,993.27,364.3Z" class="cls-5"/><path transform="translate(-197.18 -192.14)" d="M1036.45,478.77s-35.82,145.08,104.43,146.28c38.78.33,82.78-12.33,94.57-58.65a83.71,83.71,0,0,0-1.62-46c-4.61-14.16-11.56-30-23.33-38.43,5.34,7.72,5.26,19.46-.19,27.09-14.07,19.71-46.83,3.13-36.44-22.21,2.41-5.88,5.71-11.29,8-17.23,7.31-19.05-2.62-41.78-10.33-58.82,0,0,5,25.7-22.14,25.09s-38.75-45.29-19.93-77.72c0,0-57,41-47,105.26S1037.56,522.83,1036.45,478.77Z" class="cls-2"/><path transform="translate(-197.18 -192.14)" d="M1135.1,624.94s67.31,5.78,51.9-65.65c0,0-10.5,36.2-35.71,20.9s9.8-41.9.7-76.92-27.31-37.11-27.31-37.11,24.51,45.52-12.61,72.13S1058.68,626.16,1135.1,624.94Z" class="cls-3"/><path transform="translate(-197.18 -192.14)" d="M1301,1009.29c-.76-4.74-1.63-9.68-2.66-14.69a180.32,180.32,0,0,0-7-25c-.56-1.55-1-3.18-1.59-4.69a90.28,90.28,0,0,0-6.67-13.3h0a58.15,58.15,0,0,1-4.56-9.4,69.43,69.43,0,0,1-2.26-7l-.3-1.15a75.56,75.56,0,0,1-1.56-7.56v-.08a70.78,70.78,0,0,1-.72-7.67c0-.28,0-.57,0-.85a59,59,0,0,1,1.36-15.29c0-.13,0-.25.08-.37a36.34,36.34,0,0,1,5.8-13.06.61.61,0,0,1,.07-.1,25.45,25.45,0,0,1,4.77-5h0a24.28,24.28,0,0,1,7.33-4,87.18,87.18,0,0,0-11.93,5.28l-1,.56c-1.76.95-3.58,2-5.49,3.2l-.52.35c-1.68,1.08-3.39,2.28-5.11,3.57-.51.38-1,.75-1.5,1.15-1.9,1.49-3.79,3.07-5.62,4.82-.17.17-.32.35-.49.52a62.38,62.38,0,0,0-4.75,5.2c-.44.54-.88,1.08-1.31,1.64a55.7,55.7,0,0,0-4.48,6.69c-.07.13-.12.28-.19.41a49.52,49.52,0,0,0-3.19,7.26c-.24.69-.48,1.4-.7,2.12a48.22,48.22,0,0,0-1.91,8.76h0a39.56,39.56,0,0,1-1.07,5.78c-.14.54-.32,1-.47,1.5a27.91,27.91,0,0,1-1.19,3.12c-.23.46-.45.9-.69,1.31a14.7,14.7,0,0,1-1.52,2.18c-.25.3-.5.63-.76.89a9.73,9.73,0,0,1-2.17,1.62c-.15.08-.28.21-.43.28a7.7,7.7,0,0,1-2.8.7,6.7,6.7,0,0,1-1,0,9.31,9.31,0,0,1-1.94-.3,10.37,10.37,0,0,1-1.24-.46,12.77,12.77,0,0,1-1.74-.93,13.8,13.8,0,0,1-1.28-.87,19.29,19.29,0,0,1-1.69-1.6c-.39-.4-.79-.74-1.17-1.19a27.29,27.29,0,0,1-2.43-3.48c-.37-.62-.7-1.35-1-2-.43-.84-.85-1.68-1.23-2.61s-.65-1.71-1-2.61-.63-1.94-.91-3-.53-2-.75-3-.43-2.39-.62-3.63c-.16-1-.35-2.07-.47-3.18a91.88,91.88,0,0,1,1.39-26,123.2,123.2,0,0,1,3-12.56,92.36,92.36,0,0,0,3.64-30.54,98.19,98.19,0,0,0-2.41-16.89c-.09-.41-.15-.82-.25-1.23-.57-2.4-1.25-4.8-2-7.2-.23-.73-.44-1.45-.68-2.17q-1.14-3.43-2.51-6.87c-.32-.8-.65-1.6-1-2.41-1-2.27-2-4.54-3.09-6.8-.36-.75-.76-1.49-1.14-2.24-1.2-2.34-2.43-4.68-3.79-7-.22-.38-.48-.76-.71-1.14a185.52,185.52,0,0,0-16-22.67c-.76-.93-1.49-1.87-2.28-2.81-1.57-1.85-3.23-3.7-4.89-5.55-1.13-1.25-2.24-2.49-3.4-3.73-1.61-1.71-3.27-3.42-5-5.12q-2-2.06-4.13-4.1c-1.66-1.6-3.34-3.21-5.06-4.8s-3.24-2.94-4.89-4.4-3.38-3-5.13-4.49-3.85-3.2-5.8-4.79c-1.65-1.34-3.25-2.68-4.95-4q-4.74-3.72-9.73-7.39c-.58-.43-1.12-.87-1.71-1.29h0a2.34,2.34,0,0,1,.8,1,6.62,6.62,0,0,1,.35.61,14,14,0,0,1,.62,1.4c.08.2.17.4.24.6.27.74.53,1.47.73,2.09L1136,729a110.77,110.77,0,0,1,4.14,12.41c.73,2.67,1.45,5.35,1.93,8,.65,3.76,1.2,7.53,1.75,11.3.5,3.48.84,7,1.18,10.44.31,3.2.7,6.4.8,9.62.07,2.26,0,4.36-.13,6.43a72.08,72.08,0,0,1-1.31,9.88,119.58,119.58,0,0,1-3.35,12.58c-1,3.14-1.89,6.08-2.8,9a92.5,92.5,0,0,1-5.56,14.18c-4.41,8.72-8.44,17.67-11.06,27.1-3.06,11-4.19,22.94-1.57,34.17a33.56,33.56,0,0,0,1.81,5c2.36,5.78,6,11.31,9.38,16.8,1.44,2.33,2.8,4.66,4,7-5-6.91-26.42-14.19-35.44-21l.3.23-.34-.21a.74.74,0,0,0-.67-.4,87.88,87.88,0,0,1-7.83-6,69.21,69.21,0,0,1-24.32-53.4h0a78.75,78.75,0,0,0-3.51,9.72h0c-.35,1.15-.69,2.4-1,3.72-.16.63-.31,1.31-.47,2-.23,1-.46,2-.67,3-.15.71-.29,1.41-.43,2.15-.24,1.29-.46,2.63-.66,4-.08.58-.18,1.11-.26,1.69-.25,1.92-.44,3.93-.59,6,0,.62-.06,1.24-.09,1.87-.09,1.61-.13,3.25-.13,4.92,0,.72,0,1.43,0,2.16,0,2,.14,4,.32,6.09,0,.35,0,.7.07,1.05.24,2.39.61,4.83,1.06,7.3.12.68.29,1.35.43,2,.4,1.89.87,3.8,1.41,5.71.22.77.43,1.52.67,2.28.75,2.39,1.6,4.77,2.6,7.17.09.19.15.38.22.57a85.77,85.77,0,0,0,3.83,7.68c.41.73.87,1.46,1.31,2.19,1.14,1.92,2.4,3.83,3.75,5.73.54.76,1.07,1.51,1.64,2.27a91.77,91.77,0,0,0,6.33,7.55c5.58,5.95,15,13,22.86,20.5,6.18,5.94,11.4,12.2,12.8,18.59a54.24,54.24,0,0,1,1.13,7.76c.6,8.1-.7,16.85-6.18,22.53-27.1,28.29-32.55-25.64-38.4-39.33a68.9,68.9,0,0,0-6.29-11.63s0,0,0,0l0,0c-7.55-11.14-18.35-19-33-20.38h0a52,52,0,0,1,18.6,32.74,55.73,55.73,0,0,1-2,23.71q-1.68,5.77-3.25,11.54c-.5,1.83-1,3.66-1.44,5.49s-1,3.88-1.43,5.81a222.14,222.14,0,0,0-4.72,26c0,.44-.11.89-.16,1.33-.15,1.36-.36,2.73-.48,4.09a137.46,137.46,0,0,0-.5,15.58,108.59,108.59,0,0,0,9.42,41.87c9.5,21.18,19.87,34.92,40.29,46.27a150.49,150.49,0,0,0,27.5,11.64,146.85,146.85,0,0,0,28.32,6c3.51.39,7,.9,10.53,1,46.5,1.7,90.22-18.75,117.61-53.85a134.83,134.83,0,0,0,22.59-43A145.5,145.5,0,0,0,1301,1009.29Z" class="cls-6"/><path transform="translate(-197.18 -192.14)" d="M1156.19,1172.22s-140.59-38-92.69-150.72c0,0-1.44,65,41.37,53.92,38.34-10,49.42-89.55,9.56-128.3,0,0,41.93,10.94,54.73,26.44,0,0-20.41-26.67-3.8-57.07s24.22-41.47,3.8-59.18c0,0,42.7,15.47,33.84,74.16s46.5,53.58,58.68,15.65c0,0,10,38.19-16.61,58.89s20.22,67.4,33.22,15.49c0,0,34.86,118.93-78.34,145.66C1200,1167.16,1174.43,1174.38,1156.19,1172.22Z" class="cls-2"/><path transform="translate(-197.18 -192.14)" d="M1184.18,1170.62s-65.32-6.63-37.65-57.56,40.49-61.22,21.92-107c0,0,41.19,23.23,20.16,82.3s47.6,40.57,41,0C1229.57,1088.31,1277.17,1166.17,1184.18,1170.62Z" class="cls-3"/><path transform="translate(-197.18 -192.14)" d="M924.61,1035c-.05-.62-.17-1.22-.23-1.83-.15-1.27-.29-2.53-.46-3.79h0c-.3-2.27-.56-4.55-.94-6.82a.19.19,0,0,1,0-.08h0c-1.5-9-3.24-17.9-2.24-27,.31-2.82,2.18-21.17,5.48-22.32-7.39,2.68-12.64,9.14-16.4,16.23l-.22.44c-.77,1.49-1.47,3-2.11,4.49-.15.33-.3.67-.44,1-.65,1.62-1.27,3.23-1.8,4.79a.13.13,0,0,1,0,.08c-1.85,5.49-1.4,12.14-3.44,17.33-2.12,5.39-9.14,9.29-14.55,10.07-10.74,1.53-17.41-6.18-17.6-16.91-.13-7.33,2.81-14.35,6.1-20.91s7-13,8.74-20.14c3.63-15.18-3.69-24.73-10.4-36.68h0c-.52-.93-1.06-1.85-1.58-2.82-.35-.68-.61-1.41-.94-2.1a90.16,90.16,0,0,1-5.37-13.89,93.79,93.79,0,0,1-3.73-28.68c.46-16.35,5.51-32.52,17-44.2a52.26,52.26,0,0,1,6.25-5.45h0s-46.5,9.55-53.56,56.88c-6.61,44.37-37.31,43.14-36.33,5.87a76.79,76.79,0,0,1,.63-7.94c.38-3,.77-6.06,1.15-9.29a1.23,1.23,0,0,0,0-.2,331.93,331.93,0,0,0,2.58-40.27c-.18-40.22-10.54-84.43-55.65-104.69h0s8.2,8.61,12.27,23.89c.52,2,1,4.07,1.32,6.26,0,.23.09.45.12.69.3,2,.5,4,.62,6.19,0,.49.08,1,.1,1.46.07,2,0,4-.09,6.07,0,.74,0,1.46-.11,2.22-.15,1.93-.47,4-.79,6-.17,1-.27,1.92-.48,2.92-.39,1.94-1,4-1.55,6-.32,1.16-.57,2.27-1,3.45-.66,2-1.54,4.13-2.41,6.24-.51,1.26-.92,2.47-1.51,3.76-1,2.28-2.35,4.64-3.62,7-.65,1.19-1.16,2.33-1.87,3.54-2.12,3.61-4.52,7.29-7.27,11.07-24,33.17-33.9,55.43-33.19,76.91.56,16.71,7.5,32.94,19.11,53.46,0,0-22.45-16.2-26.61-56.05S638.2,860,638.2,860h0s29.33,12.88,31.2,39.53a45,45,0,0,1-3.79,20.66c-7.17,17.16-11.56,36.07-11.51,54.92a112.6,112.6,0,0,0,1.58,18.77,98.5,98.5,0,0,0,13.45,35.66c6.18,9.85,15.53,19.19,16.73,31.1a25.79,25.79,0,0,1,0,5.27c-1.59,14.92-17.24,10.3-25.36,4.15-12.84-9.72-17.78-27.19-20.21-42.33h0a23.36,23.36,0,0,1,.06,5.1,2.45,2.45,0,0,0,0,.27c-.13,1.67-.29,3.35-.27,4.88.09,5.6.56,11.19,1.21,16.77.18,1.49.39,3,.61,4.47h0c.24,1.62.38,3.24.65,4.85a151,151,0,0,0,3.7,15.7c.65,2.36,1.41,4.67,2.18,7s1.72,4.71,2.65,7c5.61,14.33,13.25,27.83,23.82,39.18a106.52,106.52,0,0,0,10.95,10.18,137.51,137.51,0,0,0,20.54,13.45,189.13,189.13,0,0,0,18.29,8.91,51.79,51.79,0,0,0,8.48,2.6,100.3,100.3,0,0,0,10,1.62c6,.72,12.12,1.1,17.5,1.63a235.2,235.2,0,0,0,38.18.84c25.56-1.6,51.07-8.17,73.08-21.26a123.79,123.79,0,0,0,27-21.55q4-4.2,7.49-8.78a92.29,92.29,0,0,0,5.55-8.24c6.35-10.44,9.86-21.17,11.3-34.08.52-4.63.77-9.35,1.08-14.06A215.6,215.6,0,0,0,924.61,1035Z" class="cls-7"/><path transform="translate(-197.18 -192.14)" d="M794.51,1172.48c-34.67-2-72.53-19.23-86.65-52.78-9.54-22.68-1.14-41.26-1.83-64-.54-17.66-11.83-27.75-18.33-43-7.67-18-10.55-36.81-5.09-55.91-6.25,21.87,44.28,76.61,59.14,50.44,2.66-4.7,2.18-10.46,1.63-15.83-1.73-16.67-5.62-34.53-5.34-51.28.24-14.22,8.14-26.11,13.44-39.31,5.76-14.35,14.17-34.44-.23-46.44,0,0,37.5,6.64,26.5,75.28s62.07,46.5,62.07,4.43c0,11.32,9.47,25,10.18,37.43,1.3,22.55-13.53,36.34-16,57.9-2.22,19.17,24.43,72.17,45.7,42-.73,1,3.74,13.4,4,15.09,2.06,12.51,1.36,25.63-3.32,37.49-11.74,29.79-47.25,47.14-77.75,48.57A76.26,76.26,0,0,1,794.51,1172.48Z" class="cls-2"/><path transform="translate(-197.18 -192.14)" d="M808.55,1165.65a45.91,45.91,0,0,1-25.5-4.88,50.72,50.72,0,0,1-26.57-41.68c-.59-12.69,3.67-25.2,3.3-37.9s-8-27-20.72-27.78c13.61-2,28,7.11,32,20.3,1.63,5.44,1.63,11.26,3.09,16.75s5,11.06,10.52,12.34c6.72,1.56,13.4-4.11,15.47-10.68s.78-13.68-.53-20.45c-3.3-17-11.08-36.27-4.57-52.89A63.86,63.86,0,0,1,807.23,999c1.75-1.93,18.22-13.29,18.22-13.85a122.49,122.49,0,0,0,3.1,101c5.56,11.15,12.92,21.62,15.83,33.74C850.65,1146.06,830.84,1163.59,808.55,1165.65Z" class="cls-3"/><path transform="translate(-197.18 -192.14)" d="M538.59,1007.85c-.11-1-.28-2-.42-3-.33-2.39-.71-4.76-1.19-7.1-.21-1-.45-2.08-.69-3.12-.56-2.43-1.19-4.85-1.88-7.24-.22-.74-.42-1.49-.65-2.24-3.56-11.73-8.34-23.06-12.72-34.78h0c-1.88-5-3.7-10.11-5.29-15.35-1.41-4.67-2.77-9.42-4-14.22-.15-.58-.28-1.16-.43-1.74-.46-1.78-.92-3.56-1.34-5.36-.19-.82-.37-1.66-.56-2.49-.34-1.55-.69-3.09-1-4.63-.2-1-.37-1.91-.55-2.86-.26-1.44-.54-2.87-.78-4.31-.16-1-.3-2-.45-3-.2-1.38-.4-2.75-.56-4.12-.13-1.05-.23-2.1-.33-3.15-.13-1.34-.25-2.68-.34-4-.08-1.06-.12-2.12-.17-3.17,0-1.31-.09-2.63-.11-3.94,0-1.08,0-2.15,0-3.22,0-1.29.08-2.57.15-3.85q.09-1.61.24-3.21c.12-1.26.27-2.52.43-3.78.15-1.06.3-2.12.48-3.18.21-1.24.48-2.48.75-3.72.23-1,.45-2.08.73-3.11.32-1.23.7-2.44,1.09-3.65.32-1,.63-2.05,1-3.06.44-1.2,1-2.39,1.47-3.59.43-1,.82-2,1.29-2.93.59-1.22,1.28-2.42,2-3.62.5-.91,1-1.83,1.51-2.72.79-1.29,1.71-2.55,2.6-3.81.56-.77,1-1.56,1.63-2.33,1.33-1.72,2.79-3.41,4.32-5.08.25-.26.45-.54.7-.81h0A99.6,99.6,0,0,0,495.08,847h0v0a105.13,105.13,0,0,0-7.74,10.56l-.64,1a105.86,105.86,0,0,0-5.6,10.18c-.33.7-.69,1.38-1,2.1a99.66,99.66,0,0,0-3.81,9.85c-.3.92-.67,1.8-.95,2.73a96.13,96.13,0,0,0-2.92,12.67c-.35,2.23-.61,4.5-.89,6.76-.89,7.37-1.79,14.76-5.14,21.32a21.93,21.93,0,0,1-7,8.13c-8.7,6.08-21,4.66-28.85-4.21-6.88-7.76-8.81-18.79-8.87-29.32,0-.07,0-.13,0-.19,0-.89,0-1.75.06-2.62.06-2.62.19-5.2.4-7.65a191.43,191.43,0,0,1,3.69-22.79c1.59-7.54,3.32-15.07,4.54-22.67a96.23,96.23,0,0,0,1.16-15.58c0-.59,0-1.2,0-1.79,0-2.11-.21-4.18-.41-6.22-.08-.81-.14-1.62-.25-2.42-.24-1.89-.56-3.76-.93-5.6-.19-.93-.39-1.88-.61-2.8q-.62-2.56-1.38-5.09c-.33-1.06-.7-2.11-1.07-3.17-.54-1.54-1.09-3.08-1.72-4.59-.51-1.23-1.09-2.46-1.66-3.68s-1.23-2.68-1.93-4c-.79-1.52-1.68-3-2.56-4.55-.6-1-1.16-2.09-1.8-3.14q-2.4-3.87-5.16-7.75a237.22,237.22,0,0,0-41.92-44.47h0a103.13,103.13,0,0,1,27.76,51.65,100.39,100.39,0,0,1,2.22,25.87c-.13,2.37-.37,4.73-.69,7.09a60.3,60.3,0,0,1-3.89,14.85c-.13.3-.2.63-.34.94,0,0-.06.1-.09.16a41.37,41.37,0,0,1-3.66,6.65c-5.86,8.64-15.8,15-26.23,14.49-12.33-.56-22.88-10.72-26.38-22.56a42.31,42.31,0,0,1-1.16-17.42,60.84,60.84,0,0,1,5.54-18.52h0c-11.45,7.64-17.68,21-19.21,34.85,0,.33-.05.66-.09,1a61.28,61.28,0,0,0-.19,10.22c1,13.06,5.47,25.49,11.12,37.4l0,.06c1.87,4,3.88,7.84,5.92,11.68,8.49,16,23.4,40.32,23.47,61.57,0,.12,0,.24,0,.36s0,.27,0,.41c-.14,9.54-3.31,18.43-11.52,25.62a33,33,0,0,1-17.14,7.38c-7.57.91-15-1.07-18.89-8.07s-5.69-15.4-6.4-23.84c-.36-4.22-.45-8.48-.42-12.68s.18-8.32.32-12.27a67.15,67.15,0,0,0-.68-11.72c-.06-.42-.16-.81-.23-1.23-3.57-22.32-18.14-36.47-32-45a101.42,101.42,0,0,0-27.38-11.73h0a63.67,63.67,0,0,1,5.95,5.74c.22.23.46.5.68.75.61.67,1.24,1.39,1.9,2.17l1,1.16c.61.75,1.24,1.55,1.88,2.39.34.44.68.88,1,1.34.74,1,1.49,2.11,2.24,3.22.22.35.45.66.68,1q1.43,2.21,2.81,4.67c.24.44.46.91.7,1.35.66,1.25,1.31,2.53,1.93,3.86.3.64.58,1.3.86,2,.54,1.25,1.05,2.53,1.53,3.85.26.7.52,1.4.76,2.12.48,1.47.92,3,1.32,4.54.15.6.34,1.18.48,1.79a67.69,67.69,0,0,1,1.22,6.72c.05.41.06.85.1,1.26q.33,2.88.4,5.89c0,.8,0,1.63,0,2.45,0,1.7-.11,3.42-.28,5.18q-.12,1.37-.3,2.76c-.24,1.82-.59,3.68-1,5.56-.18.85-.33,1.69-.54,2.55a78.65,78.65,0,0,1-2.58,8.41c-5.24,14.07-13.5,26.15-19.64,39.59-.6,1.3-1.28,2.55-1.83,3.88-1.14,2.76-2.1,5.59-3,8.42a136.37,136.37,0,0,0-4,14.59,142.32,142.32,0,0,0-2.92,21.63c-.25,4.67-.22,9.3,0,13.9,0,.24,0,.48.05.72,2,41.41,21.95,79.5,53.88,103.91a131.92,131.92,0,0,0,47.07,23,137.15,137.15,0,0,0,36.31,4.25c22.43-.29,45.26-5.69,66.33-15a175.84,175.84,0,0,0,41.12-25.25,146.69,146.69,0,0,0,30.25-33.66,149.16,149.16,0,0,0,23.12-79.64A97.74,97.74,0,0,0,538.59,1007.85Z" class="cls-8"/><path transform="translate(-197.18 -192.14)" d="M378.37,1171.73c-23.15.12-52.44-16.39-70.09-29.53-26.94-20-43.93-52.87-46.88-86.61-1.46-16.83-.15-36.13,6.76-51.79,7.28-16.51,22.4-26.93,21.61-46.78,0,0-3.32,74.18,48.71,58.68S404,967,390,927.13s16-57.57,16-57.57-26.57,63.11,39.86,94.11,26.57,107.18,26.57,107.18,42.07-17.5,32.11-72.86c0,0,48.71,119.63-84.15,170C420.41,1168,393.9,1171.64,378.37,1171.73Z" class="cls-2"/><path transform="translate(-197.18 -192.14)" d="M378.37,1171.73c-13.38-2.21-34.75-19-43.91-28.45-13.07-13.52-26-37.41-22-56.76,6.21,5.18,9.73,14.8,16.89,20.45,11.92,9.4,26.45,10,40.15,4,39.85-17.71-9.11-61,17.58-90.27-6.06,6.64,10.28,32.9,14.27,37.22,19.64,21.27,49.74,20.16,55.87,55,4.75,27-9.73,51-36.8,55.12C420.41,1168,398.64,1175.07,378.37,1171.73Z" class="cls-3"/></svg>